<?xml version="1.0" standalone="no"?>
<!DOCTYPE svg PUBLIC "-//W3C//DTD SVG 20010904//EN"
 "http://www.w3.org/TR/2001/REC-SVG-20010904/DTD/svg10.dtd">
<svg version="1.0" xmlns="http://www.w3.org/2000/svg"
 width="2272.000000pt" height="2272.000000pt" viewBox="0 0 2272.000000 2272.000000"
 preserveAspectRatio="xMidYMid meet">
<metadata>
Created by potrace 1.14, written by Peter Selinger 2001-2017
</metadata>
<g transform="translate(0.000000,2272.000000) scale(0.100000,-0.100000)"
fill="#000000" stroke="none">
<path d="M9005 15589 c-44 -10 -91 -21 -104 -24 -48 -12 -232 -105 -308 -157
-134 -91 -321 -271 -432 -416 -102 -131 -131 -171 -131 -175 0 -3 -24 -41 -53
-84 -164 -239 -356 -622 -511 -1018 -37 -93 -71 -179 -76 -190 -4 -11 -20 -56
-35 -100 -15 -44 -30 -87 -33 -95 -3 -8 -6 -17 -7 -20 -1 -3 -4 -12 -8 -20 -6
-15 -80 -244 -117 -365 -22 -69 -99 -342 -104 -365 -2 -8 -6 -22 -9 -30 -4 -8
-14 -44 -22 -80 -9 -36 -18 -74 -21 -85 -3 -11 -7 -29 -9 -40 -3 -11 -16 -66
-30 -122 -14 -56 -27 -112 -29 -125 -3 -13 -5 -23 -6 -23 -1 0 -4 -11 -6 -25
-2 -14 -11 -53 -20 -87 -8 -34 -17 -75 -19 -92 -2 -17 -6 -35 -9 -40 -5 -7
-14 -51 -21 -101 -2 -14 -12 -65 -23 -115 -11 -49 -23 -106 -26 -125 -6 -34
-10 -57 -21 -110 -9 -41 -35 -192 -41 -233 -7 -47 -12 -72 -14 -72 -1 0 -3
-13 -5 -30 -2 -16 -10 -70 -19 -120 -8 -49 -18 -110 -21 -135 -3 -25 -10 -70
-15 -100 -11 -69 -19 -124 -26 -175 -2 -22 -7 -51 -9 -65 -2 -14 -7 -51 -10
-83 -4 -32 -8 -68 -11 -80 -2 -12 -6 -42 -9 -67 -3 -25 -7 -61 -10 -80 -2 -19
-7 -60 -11 -90 -3 -30 -8 -68 -10 -85 -5 -41 -15 -130 -19 -185 -2 -25 -4 -45
-5 -45 -1 0 -3 -20 -5 -45 -4 -43 -13 -127 -20 -198 -2 -18 -7 -70 -10 -115
-3 -45 -8 -98 -10 -117 -2 -19 -6 -71 -9 -115 -4 -44 -9 -107 -12 -141 -3 -34
-7 -94 -9 -135 -2 -41 -7 -114 -10 -164 -9 -135 -14 -236 -20 -380 -3 -71 -8
-177 -10 -235 -3 -58 -8 -302 -11 -543 l-7 -437 608 2 609 3 2 350 c4 490 11
751 18 764 4 6 2 11 -4 11 -6 0 -8 5 -5 10 4 6 8 77 10 158 5 172 13 391 21
552 3 63 7 149 9 190 2 41 6 125 10 185 4 61 8 130 10 155 1 25 6 99 10 165 5
66 9 146 9 177 1 32 3 58 6 58 3 0 6 21 6 48 2 59 12 200 19 273 7 74 12 126
20 234 3 50 8 97 10 105 2 8 7 53 10 100 4 47 9 101 11 120 3 19 7 53 9 75 2
22 6 63 9 90 13 121 17 163 21 205 3 25 7 61 10 80 3 19 7 55 10 80 3 25 8 61
10 80 3 19 7 55 10 80 2 25 7 63 10 85 3 22 8 56 10 75 2 19 5 36 6 38 1 1 2
10 3 20 3 30 18 135 22 155 2 11 5 38 8 61 5 43 14 104 22 146 6 38 22 140 29
185 3 23 8 52 10 65 6 28 12 61 19 105 17 99 36 207 41 227 2 13 7 36 10 52 2
16 9 52 14 80 6 28 13 63 16 79 5 27 9 48 20 97 4 14 8 36 11 50 3 14 23 104
45 200 23 96 42 180 43 185 1 6 5 19 9 30 3 11 9 34 12 50 8 41 13 60 16 60 1
0 3 9 5 20 5 32 116 410 131 445 3 8 7 17 8 20 4 19 29 87 34 95 3 6 6 15 7
20 4 25 118 300 126 303 4 2 8 9 8 15 0 13 64 145 91 187 9 14 35 56 59 94 88
139 188 235 295 286 41 20 66 24 138 24 54 0 92 -5 99 -12 7 -7 18 -12 25 -12
8 0 39 -16 70 -36 167 -107 332 -351 480 -709 67 -165 77 -192 141 -390 58
-181 75 -240 109 -365 8 -30 19 -71 24 -90 6 -19 12 -44 14 -55 2 -11 4 -20 5
-20 2 0 9 -31 14 -60 2 -11 6 -27 10 -35 3 -8 7 -27 10 -42 2 -14 18 -87 36
-162 17 -75 33 -156 36 -179 4 -23 10 -47 15 -53 5 -6 7 -13 4 -15 -2 -3 1
-25 6 -49 6 -25 12 -58 15 -75 2 -16 6 -41 9 -55 9 -37 13 -60 19 -104 4 -21
8 -42 11 -45 2 -4 7 -30 10 -58 3 -27 8 -60 11 -74 3 -13 7 -35 9 -49 4 -36
15 -102 20 -130 3 -14 12 -72 21 -130 9 -58 18 -118 21 -135 2 -16 6 -46 8
-65 1 -19 5 -48 8 -65 5 -27 12 -78 22 -155 12 -100 16 -127 19 -145 2 -11 7
-54 11 -95 4 -41 9 -83 11 -93 2 -10 6 -46 9 -80 3 -34 8 -73 10 -87 5 -28 15
-132 20 -200 2 -25 6 -71 10 -102 12 -114 26 -264 30 -328 3 -43 13 -166 20
-240 3 -30 8 -98 11 -150 3 -52 8 -120 10 -150 38 -555 64 -1274 68 -1897 1
-161 5 -296 9 -299 8 -8 1207 -12 1208 -4 0 3 2 147 4 320 4 411 15 827 30
1150 4 74 8 176 10 225 2 50 7 135 10 190 3 55 8 134 10 175 3 41 7 109 10
150 3 41 7 111 10 155 2 44 7 105 10 135 3 30 8 89 11 130 15 195 23 284 29
338 3 24 8 76 11 115 3 40 8 88 10 107 5 40 10 94 18 165 3 28 8 75 11 105 8
61 12 99 20 180 3 30 8 66 11 80 2 14 7 48 9 76 3 28 8 62 11 75 2 13 7 47 9
74 3 28 7 59 9 70 2 11 8 49 12 85 8 66 10 78 13 83 1 1 4 18 5 37 2 19 6 49
9 65 3 17 8 52 12 79 3 27 8 52 10 55 1 3 6 31 10 61 4 30 13 91 22 135 8 44
16 89 17 100 11 62 27 153 31 175 3 14 21 102 40 195 19 94 38 184 41 200 3
17 19 86 35 155 16 69 32 134 34 145 2 11 4 21 6 23 2 3 5 12 14 57 4 22 11
47 15 55 5 8 10 29 13 45 9 49 99 354 118 400 7 17 13 35 14 40 1 6 3 13 5 18
1 4 3 10 4 15 1 4 7 23 15 42 7 19 16 44 21 55 89 235 183 444 251 557 113
184 241 320 354 371 124 57 262 40 373 -48 54 -43 145 -146 198 -226 112 -168
249 -469 334 -734 17 -55 35 -109 40 -120 4 -11 15 -47 24 -80 10 -33 22 -76
28 -95 6 -19 15 -48 19 -65 7 -26 42 -162 53 -205 2 -8 12 -44 21 -80 9 -36
19 -74 21 -85 3 -19 7 -35 19 -92 3 -13 7 -32 10 -43 6 -26 13 -56 22 -100 4
-19 8 -37 8 -40 8 -37 26 -121 30 -140 2 -14 11 -56 19 -95 8 -38 17 -86 20
-105 3 -19 10 -60 16 -90 13 -70 20 -108 25 -140 2 -14 6 -36 9 -50 3 -14 7
-41 10 -60 3 -19 8 -46 10 -60 4 -24 20 -128 31 -200 2 -19 7 -46 10 -60 5
-26 10 -64 21 -145 3 -27 8 -59 10 -70 2 -11 6 -40 9 -65 3 -25 8 -61 11 -80
8 -58 14 -103 19 -150 3 -25 6 -54 9 -65 2 -11 7 -54 11 -95 4 -41 9 -84 11
-94 4 -20 13 -102 19 -166 6 -62 13 -125 20 -180 4 -30 9 -80 11 -110 3 -30 6
-71 8 -90 2 -19 6 -69 10 -110 10 -115 16 -181 21 -225 3 -22 7 -78 10 -125 4
-47 8 -105 11 -130 2 -25 7 -79 9 -120 3 -41 8 -106 10 -145 8 -110 14 -202
20 -310 3 -55 7 -131 10 -170 9 -130 19 -348 30 -625 18 -449 25 -759 28
-1245 l3 -340 608 -3 609 -2 -7 462 c-4 255 -9 504 -11 553 -3 50 -7 140 -9
200 -3 61 -7 149 -10 195 -3 47 -8 135 -12 195 -3 61 -7 133 -9 160 -3 28 -7
86 -10 130 -3 44 -7 103 -9 130 -3 28 -8 88 -11 135 -4 47 -9 101 -11 120 -2
19 -6 62 -9 95 -3 33 -7 78 -10 100 -2 22 -7 69 -10 105 -7 76 -12 116 -20
185 -6 53 -11 90 -19 170 -5 50 -11 95 -20 164 -8 57 -35 262 -40 306 -3 22
-7 51 -10 65 -2 14 -7 45 -11 70 -6 43 -9 67 -19 135 -9 60 -35 221 -40 245
-3 14 -7 41 -10 60 -3 19 -11 69 -19 110 -8 41 -15 82 -15 90 0 8 -3 26 -7 40
-3 14 -10 48 -15 75 -5 28 -12 61 -14 75 -10 45 -16 74 -21 105 -3 17 -7 41
-11 55 -3 14 -7 34 -9 45 -2 11 -6 31 -9 45 -3 14 -17 77 -31 140 -14 63 -27
124 -29 135 -2 11 -14 61 -25 110 -12 50 -26 108 -31 130 -14 58 -66 260 -85
330 -9 33 -18 65 -19 70 -2 6 -8 30 -15 55 -7 25 -15 52 -16 60 -2 8 -13 47
-25 85 -13 39 -23 75 -25 80 -1 6 -4 17 -7 25 -3 8 -29 89 -58 180 -47 150
-118 357 -143 420 -6 14 -11 30 -12 35 -4 18 -135 335 -150 366 -9 16 -15 30
-15 31 2 7 -59 140 -138 298 -119 238 -271 492 -390 650 -18 25 -43 58 -55 74
-73 98 -275 302 -372 374 -38 28 -75 56 -82 62 -36 30 -244 131 -298 144 -5 2
-28 8 -50 14 -80 22 -112 25 -242 27 -83 1 -133 -2 -133 -8 0 -6 -3 -8 -6 -5
-12 13 -164 -32 -294 -86 -38 -16 -137 -76 -218 -133 -369 -261 -734 -778
-1032 -1463 -18 -41 -40 -93 -50 -115 -10 -22 -36 -89 -60 -150 -23 -60 -46
-119 -51 -130 -12 -27 -115 -323 -124 -355 -3 -14 -10 -34 -15 -45 -13 -30
-105 -333 -115 -379 -1 -6 -7 -22 -12 -36 -10 -24 -11 -23 -22 20 -7 25 -24
83 -38 130 -15 47 -25 85 -24 85 1 0 -8 27 -19 60 -12 33 -23 65 -24 70 -1 6
-5 16 -9 23 -5 6 -6 12 -2 12 3 0 -1 13 -10 30 -8 16 -15 32 -14 35 0 3 -12
43 -27 88 -16 45 -29 84 -29 87 -1 3 -5 13 -9 22 -4 9 -9 22 -10 30 -2 7 -9
27 -16 43 -7 17 -24 64 -39 105 -15 41 -35 90 -44 109 -9 19 -17 39 -17 46 0
7 -6 25 -14 41 -7 16 -35 79 -61 139 -59 135 -122 275 -134 295 -5 8 -28 53
-52 100 -67 134 -249 445 -269 460 -4 3 -12 15 -18 26 -15 29 -132 185 -190
254 -80 94 -214 229 -287 288 -38 31 -71 60 -73 65 -2 4 -8 7 -14 7 -6 0 -27
13 -47 30 -83 65 -311 167 -411 184 -19 3 -46 9 -60 12 -60 16 -255 12 -335
-7z"/>
</g>
</svg>
